<svg width="72" height="24" fill="none" xmlns="http://www.w3.org/2000/svg"><g clip-path="url(#a)"><path fill-rule="evenodd" clip-rule="evenodd" d="M6.038.224c.127.049.187.133.181.318-.014.466-.011.934-.009 1.4l.002.555v.225l-.288-.037a5.925 5.925 0 0 0-.584-.06c-.8-.027-1.513.167-1.938.918-.114.203-.196.451-.202.68-.018.6-.015 1.201-.012 1.813l.002.705h3.006v2.45H3.172c0 1.846-.002 4.402-.004 6.994v.001l-.004 5.765c0 1.12-.909 2.027-2.03 2.027H0v-.273l.003-6.871v-.371l.001-2.568c.002-3.304.004-6.582.004-9.121 0-.815.078-1.62.432-2.367C1.113.99 2.284.252 3.833.06c.739-.092 1.511-.106 2.205.164ZM51.356 3.54a1.57 1.57 0 1 0-3.141 0 1.57 1.57 0 0 0 3.141 0ZM10.168 1.97a1.57 1.57 0 1 1 0 3.14 1.57 1.57 0 0 1 0-3.14Zm56.45 3.773c0-1.11.9-2.02 1.993-2.02 1.092 0 1.993.912 1.993 2.02 0 1.11-.884 2.021-2.02 2.021-1.066 0-1.967-.922-1.967-2.02Zm3.508 0c0-.873-.676-1.575-1.516-1.575-.839 0-1.51.703-1.51 1.575 0 .873.67 1.576 1.538 1.576.813 0 1.488-.714 1.488-1.576Zm-2.31-1.065h.91c.45 0 .742.247.742.648 0 .307-.198.543-.538.615l.577.851h-.522l-.516-.824h-.214v.824h-.439V4.678Zm1.217.654c0-.165-.12-.259-.33-.259h-.45v.522h.45c.21 0 .33-.099.33-.263Zm-5.593 1.39v6.956h.009v3.332c0 1.514-.3 2.646-.892 3.366a2.64 2.64 0 0 1-1.182.815 4.252 4.252 0 0 1-1.372.23h-.047a4.94 4.94 0 0 1-.942-.111l-.047-.012-.045-.01-.085-.023a2.767 2.767 0 0 1-.052-.015l-.017-.005c-.56-.167-1.005-.454-1.344-.867-.592-.72-.892-1.852-.892-3.367V6.721h-3.173v6.957h.01v3.693c0 2.15.52 3.801 1.548 4.91.91.984 2.189 1.54 3.803 1.66l.01.001.02.002.031.001a22.902 22.902 0 0 0 1.228.033c.256 0 .506-.005.748-.014a9.13 9.13 0 0 0 .599-.03l.04-.003v-.001c1.55-.141 2.782-.693 3.668-1.648 1.027-1.109 1.549-2.762 1.549-4.911V6.72H63.44Zm-54.842 0h3.14V24h-3.14V6.722Zm42.758 0h-3.141V24h3.141V6.722ZM27.348 7.926c-1.093-1.141-2.657-1.72-4.647-1.72-1.38 0-2.608.3-3.651.891-.726.411-1.33.936-1.81 1.563a2.027 2.027 0 0 0-2.027-1.997h-1.135v17.315h3.175v-9.905c0-1.052.19-1.983.568-2.768.37-.77.906-1.377 1.592-1.805.688-.429 1.518-.646 2.467-.646 1.301 0 2.291.354 2.943 1.055.658.708.993 1.832.993 3.341v10.727h3.174V12.856c0-2.136-.552-3.795-1.64-4.931h-.002Zm12.38-1.72c1.991 0 3.555.579 4.649 1.72l-.001-.002c1.089 1.136 1.64 2.795 1.64 4.931v11.121h-3.173V13.25c0-1.51-.334-2.634-.993-3.342-.652-.7-1.642-1.055-2.943-1.055-.949 0-1.779.217-2.466.646a4.254 4.254 0 0 0-1.592 1.805c-.378.785-.57 1.716-.57 2.768v9.905h-3.174V6.731c.108 0 .214.008.32.019h.815c1.083 0 1.965.846 2.024 1.915a5.944 5.944 0 0 1 1.814-1.568c1.043-.59 2.271-.89 3.65-.89Z" fill="#fff" style="fill:#fff;fill-opacity:1"/></g><defs><clipPath id="a"><path fill="#fff" style="fill:#fff;fill-opacity:1" d="M0 0h72v24H0z"/></clipPath></defs></svg>