<svg width="48" height="48" fill="none" xmlns="http://www.w3.org/2000/svg"><g clip-path="url(#a)"><circle cx="24" cy="24" r="24" fill="#28292B" style="fill:color(display-p3 .1569 .1608 .1686);fill-opacity:1"/><path fill-rule="evenodd" clip-rule="evenodd" d="M32.27 13.296c0-.519-.267-.972-.703-1.185-.42-.197-.9-.132-1.299.196l-1.293 1.088-.736-.978a.94.94 0 0 0-1.347-.224l-.025.021-.024.022-1.146 1.093c-.36-.508-.927-1.153-1.555-1.29a1.137 1.137 0 0 0-.922.208 1.973 1.973 0 0 0-.769 1.366c-.133 1.13.559 2.449 1.118 3.308h7.55c1.041-1.648 1.151-2.73 1.151-3.624ZM11.467 24.866l3.204-.442a.55.55 0 0 1 .611.437l1.834 9.47a.524.524 0 0 1-.093.42.554.554 0 0 1-.366.223l-3.203.437c-.022.005-.05.005-.077.005a.547.547 0 0 1-.535-.442L11.01 25.51a.564.564 0 0 1 .092-.426.527.527 0 0 1 .366-.218Zm23.52 4.94c.174-.054.338-.082.496-.082.829 0 1.527.595 1.663 1.407a1.686 1.686 0 0 1-1.08 1.844l-6.99 2.524a8.406 8.406 0 0 1-7.21-.692l-2.874-1.707a1.552 1.552 0 0 0-1.036-.19h-.011l-1.44-7.417.01-.002a30.99 30.99 0 0 0 1.294-.254c1.45-.333 6.364-1.151 8.741 2.208.66.932 1.51 1.598 2.46 1.93l.294.104a1.7 1.7 0 0 1 .606.365c.529.508.027 1.44-.671 1.222h-.011l-5.432-1.789a.54.54 0 0 0-.687.344.55.55 0 0 0 .35.692l5.425 1.79c.213.065.431.103.65.103.845 0 1.64-.535 1.946-1.37l3.507-1.03Zm-9.25-8.526c0 .9.731 1.637 1.631 1.637.3 0 .545.24.545.545 0 .3-.245.546-.545.546a.546.546 0 0 1-.54-.546.544.544 0 0 0-.545-.545c-.3 0-.546.24-.546.545 0 .704.453 1.304 1.086 1.533v.649c0 .3.245.545.545.545.3 0 .545-.245.545-.545v-.65a1.63 1.63 0 0 0-.545-3.168.546.546 0 0 1-.005-1.091h.01c.3 0 .54.245.54.545 0 .3.246.546.546.546.3 0 .545-.246.545-.546 0-.714-.458-1.314-1.09-1.538v-.643a.544.544 0 0 0-.546-.546c-.3 0-.545.24-.545.546v.643c-.633.23-1.086.83-1.086 1.538Zm1.716 5.53c-1.391-1.963-3.71-3-6.704-3-.141 0-.278 0-.414.012l3.36-5.815h7.38l3.692 5.891c.932 1.347 1.058 3.07.322 4.582a2.51 2.51 0 0 1-.11.207c-.098.016-.19.043-.283.07l-3.55 1.043a1.839 1.839 0 0 0-.475-.753 2.85 2.85 0 0 0-.993-.6l-.294-.104c-.737-.256-1.402-.785-1.931-1.532Z" fill="#1AA7FF" style="fill:color(display-p3 .102 .6549 1);fill-opacity:1"/></g><defs><clipPath id="a"><path fill="#fff" style="fill:#fff;fill-opacity:1" d="M0 0h48v48H0z"/></clipPath></defs></svg>