<svg width="48" height="48" fill="none" xmlns="http://www.w3.org/2000/svg"><g clip-path="url(#a)"><circle cx="24" cy="24" r="24" fill="#28292B" style="fill:color(display-p3 .1569 .1608 .1686);fill-opacity:1"/><path fill-rule="evenodd" clip-rule="evenodd" d="M36.65 12h-5.502c-.706 0-1.295.589-1.295 1.295s.588 1.295 1.295 1.295h2.412l-7.414 7.416-5.914-5.915c-.5-.5-1.324-.5-1.824 0l-8.032 8.034a1.297 1.297 0 0 0 .912 2.207c.324 0 .647-.118.912-.383l7.15-7.15 5.913 5.914c.5.5 1.324.5 1.824 0l8.327-8.328v2.413c0 .706.588 1.295 1.294 1.295.706 0 1.295-.589 1.295-1.295v-5.503c-.059-.706-.648-1.295-1.354-1.295ZM14.263 29.85h-3.271a.823.823 0 0 0-.825.824v4.502c0 .441.354.824.825.824h3.271a.823.823 0 0 0 .825-.824v-4.502a.823.823 0 0 0-.825-.823Zm4.198-3.842h3.301c.442 0 .826.382.796.823v8.346c0 .47-.383.823-.825.823h-3.272a.823.823 0 0 1-.826-.823V26.83c0-.47.383-.823.826-.823Zm18.237-2.565h-3.26a.821.821 0 0 0-.822.824v10.909c0 .44.352.823.822.823h3.26c.44 0 .822-.353.822-.823v-10.91a.821.821 0 0 0-.822-.823ZM25.97 28.598h3.26a.82.82 0 0 1 .821.822v5.758c0 .47-.381.822-.822.822h-3.26a.821.821 0 0 1-.822-.822V29.42a.82.82 0 0 1 .823-.822Z" fill="#F2BA21" style="fill:color(display-p3 .949 .7294 .1294);fill-opacity:1"/></g><defs><clipPath id="a"><path fill="#fff" style="fill:#fff;fill-opacity:1" d="M0 0h48v48H0z"/></clipPath></defs></svg>