<svg width="72" height="24" viewBox="0 0 72 24" fill="none" xmlns="http://www.w3.org/2000/svg">
<g clip-path="url(#clip0_856_8694)">
<path fill-rule="evenodd" clip-rule="evenodd" d="M6.03836 0.223574C6.16525 0.273002 6.225 0.357103 6.2191 0.541537C6.20536 1.00836 6.2079 1.47557 6.21045 1.94288V1.94289V1.9429C6.21146 2.12768 6.21246 2.31247 6.21246 2.49727V2.72154C6.11378 2.71026 6.01802 2.69741 5.92422 2.68483L5.92422 2.68483L5.92421 2.68483C5.7235 2.65789 5.53178 2.63217 5.33972 2.62563C4.53928 2.59834 3.82737 2.79236 3.40243 3.54338C3.28808 3.74551 3.20619 3.99413 3.19955 4.22357C3.18193 4.82346 3.1848 5.42412 3.18773 6.03621C3.18884 6.26943 3.18996 6.50432 3.18996 6.74145H6.19623V9.19073H3.17152C3.17152 11.0366 3.16965 13.5933 3.16774 16.1846L3.16774 16.1851V16.1855L3.16774 16.1863C3.16627 18.1918 3.16479 20.218 3.16414 21.9513C3.1634 23.0719 2.25525 23.9779 1.13463 23.9779H0V23.7049C0 21.7459 0.00134311 19.3453 0.00274843 16.8335L0.00294967 16.4736V16.4626L0.00438065 13.8951C0.00625446 10.5913 0.00811381 7.31307 0.00811381 4.77392C0.00811381 3.95872 0.0855759 3.15311 0.440426 2.40653C1.1125 0.990817 2.28403 0.251607 3.83253 0.0597967C4.57174 -0.0324201 5.34415 -0.0456993 6.03836 0.223574ZM51.3561 3.53969C51.3561 2.67225 50.6529 1.96906 49.7855 1.96906C48.918 1.96906 48.2148 2.67225 48.2148 3.53969C48.2148 4.40713 48.918 5.11033 49.7855 5.11033C50.6529 5.11033 51.3561 4.40713 51.3561 3.53969ZM10.1682 1.96906C11.0356 1.96906 11.7388 2.67226 11.7388 3.53969C11.7388 4.40713 11.0356 5.11033 10.1682 5.11033C9.30074 5.11033 8.59754 4.40713 8.59754 3.53969C8.59754 2.67226 9.30074 1.96906 10.1682 1.96906ZM66.6172 5.74331C66.6172 4.63376 67.518 3.72266 68.6105 3.72266C69.7031 3.72266 70.6039 4.6345 70.6039 5.74331C70.6039 6.85212 69.7201 7.76396 68.5832 7.76396C67.518 7.76396 66.6172 6.84179 66.6172 5.74331ZM70.1259 5.74331C70.1259 4.86983 69.4501 4.16751 68.6105 4.16751C67.771 4.16751 67.1004 4.87057 67.1004 5.74331C67.1004 6.61605 67.7703 7.31911 68.6378 7.31911C69.4508 7.31911 70.1259 6.60498 70.1259 5.74331ZM67.816 4.67802H68.7264C69.1764 4.67802 69.4678 4.92516 69.4678 5.32575C69.4678 5.63339 69.2701 5.86946 68.93 5.94102L69.5069 6.79237H68.9853L68.4689 5.96832H68.255V6.79237H67.816V4.67802ZM69.0333 5.33165C69.0333 5.16714 68.9123 5.07345 68.7035 5.07345H68.2535V5.59502H68.7035C68.9123 5.59502 69.0333 5.49617 69.0333 5.33165ZM63.4398 6.72153V13.6776H63.4486V17.01C63.4486 18.5238 63.1484 19.6562 62.5567 20.3762C62.2506 20.7488 61.8581 21.0188 61.3749 21.1914C61.2207 21.2438 61.0303 21.2991 60.8075 21.3419C60.5589 21.3877 60.2911 21.4135 60.0034 21.4209C59.9872 21.4209 59.9717 21.4201 59.9555 21.4201C59.6139 21.4105 59.3004 21.3737 59.0141 21.3095L58.9666 21.2982L58.9219 21.2873C58.8931 21.28 58.8651 21.2733 58.8371 21.2652C58.8188 21.2602 58.8017 21.2552 58.7847 21.2502L58.7677 21.2453C58.2085 21.0778 57.7629 20.7908 57.4236 20.3777C56.8319 19.6584 56.5316 18.526 56.5316 17.0114V6.72153H53.3594V13.6776H53.3682V17.3707C53.3682 19.5205 53.8898 21.1723 54.9175 22.2818C55.8278 23.2645 57.1056 23.8215 58.7205 23.9417L58.7303 23.9424L58.7507 23.9436C58.7609 23.9441 58.771 23.9447 58.781 23.9454C58.9027 23.9535 59.0274 23.9594 59.1528 23.9624C59.4287 23.9727 59.7135 23.9786 60.0086 23.9786C60.2653 23.9786 60.5147 23.9727 60.7574 23.9638C60.9617 23.9602 61.1617 23.9498 61.3557 23.9336L61.3955 23.9314V23.9299C62.9462 23.789 64.1783 23.2372 65.0635 22.2818C66.0912 21.173 66.6128 19.5205 66.6128 17.3707V6.72153H63.4405H63.4398ZM8.59754 6.72154H11.7388V24H8.59754V6.72154ZM51.3561 6.72153H48.2148V24H51.3561V6.72153ZM27.3485 7.92552C26.2552 6.78499 24.6912 6.2066 22.7008 6.2066C21.3212 6.2066 20.0929 6.50612 19.0497 7.09705C18.3245 7.50797 17.7196 8.0325 17.2401 8.65957C17.2238 7.55297 16.3223 6.66252 15.2128 6.66252H14.0781V23.9779H17.2526V14.0731C17.2526 13.0211 17.4437 12.09 17.8214 11.3051C18.191 10.5356 18.7266 9.92847 19.4134 9.49985C20.101 9.07123 20.9309 8.85359 21.8797 8.85359C23.181 8.85359 24.1711 9.20844 24.8225 9.90855C25.4813 10.6168 25.8162 11.7411 25.8162 13.2505V23.9771H28.99V12.8558C28.99 10.7201 28.4381 9.0609 27.3492 7.92479L27.3485 7.92552ZM39.7289 6.2066C41.7193 6.2066 43.2833 6.78499 44.3766 7.92552L44.3758 7.92405C45.4647 9.06016 46.0166 10.7193 46.0166 12.8551V23.9764H42.8428V13.2497C42.8428 11.7403 42.5086 10.616 41.8498 9.90781C41.1984 9.20771 40.2084 8.85286 38.907 8.85286C37.9583 8.85286 37.1283 9.07049 36.4408 9.49911C35.7539 9.92773 35.2183 10.5349 34.8487 11.3043C34.471 12.0893 34.2799 13.0203 34.2799 14.0723V23.9771H31.1055V6.73113C31.2132 6.73113 31.3194 6.73851 31.4249 6.74958H32.2401C33.3231 6.74958 34.2047 7.59649 34.2637 8.66473C34.744 8.03545 35.3504 7.50944 36.0778 7.09705C37.121 6.50612 38.3493 6.2066 39.7289 6.2066Z" fill="#1A69FF" style="fill:#1A69FF;fill:color(display-p3 0.1020 0.4118 1.0000);fill-opacity:1;"/>
</g>
<defs>
<clipPath id="clip0_856_8694">
<rect width="72" height="24" fill="white" style="fill:white;fill-opacity:1;"/>
</clipPath>
</defs>
</svg>
